<svg width="32" height="32" viewBox="0 0 32 32" fill="none" xmlns="http://www.w3.org/2000/svg">
<path d="M30.7608 30.4102H29.9289C29.9289 30.4041 29.9249 30.3979 29.9231 30.3922L29.9004 30.3215C29.8858 30.275 29.87 30.229 29.8537 30.1833C29.8467 30.1618 29.8391 30.1402 29.8315 30.1187C29.8099 30.0584 29.7872 29.9981 29.7639 29.9379L29.7569 29.9206C29.7312 29.8553 29.7044 29.7903 29.6764 29.7255L29.6484 29.6629C29.6291 29.6183 29.6087 29.5742 29.59 29.53C29.5789 29.5058 29.5673 29.482 29.5562 29.4582C29.5358 29.4155 29.5148 29.3729 29.4932 29.3307C29.4821 29.3084 29.4704 29.2857 29.4594 29.2639C29.4321 29.2109 29.4041 29.1582 29.3754 29.106C29.3689 29.0949 29.3637 29.0841 29.3573 29.073C29.3234 29.0115 29.2879 28.9505 29.2517 28.8894C29.2389 28.8671 29.2254 28.8452 29.212 28.8233C29.1875 28.7849 29.163 28.7427 29.1379 28.7028L29.0907 28.6286C29.0662 28.5902 29.0411 28.5518 29.0155 28.5134C28.9997 28.4896 28.9834 28.4654 28.967 28.4416C28.9373 28.3974 28.9087 28.3537 28.8754 28.3103C28.8632 28.2937 28.8521 28.2768 28.8399 28.2599C28.7985 28.2027 28.7559 28.1447 28.7127 28.0894L28.6544 28.0176L28.5721 27.9135L28.5079 27.8367C28.4811 27.8045 28.4543 27.7722 28.4269 27.7399C28.4053 27.7138 28.3831 27.6877 28.361 27.6631C28.3306 27.6282 28.3026 27.594 28.2694 27.5594L28.1854 27.4657C28.1457 27.4227 28.106 27.3793 28.0652 27.3367C28.0395 27.3098 28.0139 27.2833 27.9876 27.2568C27.9614 27.2303 27.9328 27.2 27.9048 27.1719C27.8768 27.1439 27.8465 27.1159 27.8208 27.0882C27.7951 27.0606 27.7671 27.0356 27.7397 27.0114C27.7123 26.9872 27.6814 26.955 27.6516 26.9269L27.5694 26.8501C27.511 26.799 27.4574 26.748 27.4002 26.6965L27.3203 26.6262C27.2865 26.5966 27.2515 26.5675 27.217 26.5383L27.14 26.4737C27.1045 26.4442 27.0683 26.415 27.0321 26.3854L26.9563 26.3247L26.8431 26.2356L26.776 26.1842C26.6366 26.0778 26.4937 25.9729 26.3473 25.8708L26.2831 25.8259L26.149 25.7348L26.083 25.6911C26.0364 25.6599 25.9897 25.6292 25.9425 25.5989L25.894 25.5682C25.729 25.4625 25.5592 25.3596 25.3866 25.2609L25.3393 25.2337C25.286 25.2029 25.2324 25.1726 25.1783 25.1426L25.1246 25.1127C25.0663 25.082 25.0132 25.0516 24.9566 25.0213L24.928 25.0063C24.7373 24.9049 24.5419 24.8062 24.3447 24.7113L24.3173 24.6979C24.2549 24.6683 24.1925 24.6391 24.1295 24.6103L24.0881 24.5915C24.0239 24.562 23.9591 24.5331 23.8944 24.5043L23.8833 24.4997C23.6686 24.4053 23.4499 24.3148 23.2271 24.2282L23.2183 24.2244C23.1477 24.1971 23.0771 24.1706 23.0066 24.1441L22.9756 24.1326C22.6 23.9931 22.2142 23.865 21.8183 23.7485L21.7938 23.7412C21.6894 23.7105 21.5844 23.6809 21.4782 23.6518H23.566C23.9061 23.6518 24.182 23.3941 24.182 23.0757C24.182 22.7573 23.9061 22.4996 23.566 22.4996H22.9441C22.9826 22.4351 23.0252 22.3621 23.0713 22.2799C23.6593 22.0388 24.6941 21.5249 25.7208 20.5809L25.729 20.5736C25.8067 20.503 25.8832 20.4299 25.9582 20.3543L25.9734 20.3394C26.048 20.2652 26.1227 20.1888 26.1962 20.1089L26.216 20.0878C26.251 20.0494 26.286 20.011 26.321 19.9726C26.321 19.9726 26.321 19.9695 26.3251 19.9676C26.3613 19.9292 26.3969 19.8869 26.4325 19.8459L26.4552 19.8193C26.4855 19.784 26.5165 19.7479 26.5462 19.7114C26.552 19.7049 26.5579 19.6984 26.5631 19.6915C26.5975 19.65 26.632 19.6077 26.6658 19.5651L26.6891 19.5355C26.7171 19.5002 26.7445 19.4645 26.772 19.4284C26.7801 19.4184 26.7883 19.408 26.7959 19.3977C26.8285 19.3543 26.8612 19.3105 26.8939 19.2659L26.9166 19.2348C26.9423 19.1987 26.9685 19.1619 26.9942 19.125L27.0222 19.0866C27.0537 19.0413 27.0846 18.9952 27.1155 18.9487L27.1348 18.9191C27.1605 18.8807 27.1855 18.8423 27.2106 18.8039L27.2404 18.7578C27.2695 18.7114 27.2987 18.6645 27.3267 18.6173C27.332 18.6088 27.3372 18.6 27.3419 18.5915C27.3681 18.5482 27.3938 18.504 27.4195 18.4594L27.4486 18.4087C27.4725 18.3665 27.4965 18.3239 27.5198 18.2812L27.5373 18.249C27.5647 18.1983 27.5915 18.1464 27.6184 18.0954L27.6464 18.0408C27.6674 18.0001 27.6878 17.9586 27.7082 17.9172C27.7158 17.9018 27.7234 17.8864 27.7304 17.8711C27.756 17.8181 27.7817 17.7639 27.8068 17.7098C27.815 17.691 27.8237 17.6714 27.8319 17.6537L27.8902 17.5274C27.8978 17.5089 27.906 17.4889 27.9135 17.4724C27.9375 17.4167 27.9614 17.3599 27.9841 17.3027C27.9917 17.2846 27.9987 17.2662 28.0057 17.2478C28.0232 17.2036 28.0407 17.1594 28.0576 17.1145C28.0652 17.0941 28.0728 17.0738 28.081 17.0534C28.1025 16.9943 28.1241 16.9348 28.1451 16.8745L28.1626 16.8242C28.179 16.7762 28.1953 16.7278 28.211 16.679L28.232 16.6137C28.2519 16.5511 28.2717 16.4885 28.2904 16.4247C28.2945 16.4125 28.298 16.3998 28.3015 16.3863C28.3178 16.3314 28.3335 16.2757 28.3487 16.2201C28.3551 16.1974 28.361 16.1747 28.3674 16.1521C28.3825 16.0949 28.3971 16.0369 28.4117 15.9796C28.4146 15.9673 28.4181 15.9554 28.421 15.9435C28.4374 15.8759 28.4533 15.8078 28.4689 15.7392C28.4741 15.7162 28.4794 15.6931 28.484 15.6697C28.4963 15.614 28.508 15.558 28.5196 15.5011L28.5301 15.4489C28.5441 15.3782 28.5575 15.3072 28.5704 15.235C28.5745 15.2123 28.5779 15.1897 28.582 15.1666C28.5921 15.1093 28.6015 15.0517 28.61 14.9938C28.6135 14.973 28.617 14.9527 28.62 14.932C28.6312 14.8577 28.6417 14.7828 28.6515 14.7073C28.6515 14.6862 28.6567 14.665 28.659 14.6435C28.6666 14.5829 28.6742 14.5218 28.6806 14.4603C28.6806 14.4377 28.6859 14.415 28.6882 14.3924C28.6964 14.314 28.704 14.2352 28.711 14.1558C28.711 14.1377 28.711 14.1174 28.715 14.1013C28.7203 14.0352 28.7255 13.9688 28.7296 13.9019C28.7296 13.8777 28.7296 13.8536 28.7343 13.8294C28.7389 13.7468 28.7436 13.6638 28.7471 13.5797C28.7471 13.5682 28.7471 13.5563 28.7471 13.5444C28.7502 13.4696 28.7526 13.3941 28.7541 13.3178C28.7541 13.2928 28.7541 13.2679 28.7541 13.2429C28.7541 13.161 28.7541 13.0785 28.7541 12.9956V12.9764C28.7541 12.8881 28.7541 12.7986 28.7541 12.7076V12.6307C28.7541 12.5539 28.7495 12.4733 28.7465 12.3934V12.35C28.7425 12.2578 28.7372 12.1645 28.732 12.0708C28.732 12.0466 28.7284 12.022 28.7273 11.9978C28.7222 11.919 28.7164 11.8396 28.7098 11.7597C28.7098 11.7401 28.7098 11.7213 28.7051 11.7002C28.6969 11.6042 28.688 11.5074 28.6783 11.4099L28.6713 11.3419C28.6625 11.2605 28.6538 11.1787 28.6439 11.0961C28.6439 11.0723 28.6386 11.0485 28.6357 11.0247C28.6235 10.9248 28.61 10.8238 28.596 10.7224C28.596 10.7032 28.5902 10.684 28.5879 10.6644C28.5756 10.578 28.5622 10.4908 28.5488 10.4029C28.5447 10.3764 28.5406 10.3503 28.536 10.3238C28.5196 10.2193 28.5021 10.1145 28.4835 10.0081C28.4835 9.99502 28.4782 9.98197 28.4759 9.96968C28.4591 9.87443 28.4415 9.77868 28.4228 9.68241C28.417 9.65399 28.4117 9.62557 28.4059 9.59715C28.3841 9.48808 28.3617 9.37811 28.3388 9.26725C26.0055 -1.66812 9.47037 0.106562 9.47037 0.106562L10 2.45617L0 9.41127L0.436914 12.0969L4.22507 13.6331C4.39394 13.3505 4.61075 13.0814 4.87139 12.8308C7.31555 10.9747 12.0574 9.51765 13.4149 9.21541C13.6867 9.15511 13.8413 9.12477 13.8413 9.12477C7.34822 14.6574 8.08671 20.9957 8.37604 22.5065C8.07504 22.5449 7.8423 22.7842 7.8423 23.0761C7.8423 23.3941 8.11821 23.6521 8.45829 23.6521H10.546C7.07385 24.609 4.31769 26.4315 2.87932 28.7216C2.87762 28.7247 2.87568 28.7278 2.87349 28.7308C2.76732 28.9008 2.66855 29.0732 2.57716 29.2481C2.57732 29.2499 2.57732 29.2517 2.57716 29.2535C2.55266 29.3011 2.52874 29.3487 2.50541 29.3967C2.49666 29.414 2.48791 29.4313 2.47974 29.449C2.45874 29.492 2.43929 29.5354 2.42141 29.5792C2.41091 29.6014 2.40099 29.6241 2.39107 29.6464C2.37241 29.6875 2.35433 29.7289 2.33683 29.7704L2.30532 29.8472C2.28899 29.8856 2.27266 29.9267 2.25749 29.9667C2.24641 29.9951 2.23591 30.0231 2.22541 30.0515C2.21141 30.0899 2.19683 30.1283 2.18341 30.1667C2.16999 30.2052 2.15716 30.2436 2.14432 30.2843C2.13149 30.325 2.11516 30.3726 2.10116 30.4171H1.26874C1.10867 30.4148 0.949512 30.4336 0.800598 30.4723C0.651684 30.511 0.516021 30.5689 0.401567 30.6427C0.287112 30.7164 0.196168 30.8044 0.134083 30.9016C0.0719985 30.9987 0.0400185 31.1031 0.0400185 31.2085C0.0400185 31.3139 0.0719985 31.4182 0.134083 31.5154C0.196168 31.6126 0.287112 31.7006 0.401567 31.7743C0.516021 31.848 0.651684 31.9059 0.800598 31.9447C0.949512 31.9834 1.10867 32.0021 1.26874 31.9998H30.7713C30.9313 32.0021 31.0905 31.9834 31.2394 31.9447C31.3883 31.9059 31.524 31.848 31.6385 31.7743C31.7529 31.7006 31.8438 31.6126 31.9059 31.5154C31.968 31.4182 32 31.3139 32 31.2085C32 31.1031 31.968 30.9987 31.9059 30.9016C31.8438 30.8044 31.7529 30.7164 31.6385 30.6427C31.524 30.5689 31.3883 30.511 31.2394 30.4723C31.0905 30.4336 30.9313 30.4148 30.7713 30.4171L30.7608 30.4102Z" fill="#595653"/>
</svg>
